# xmcd CD database file
#
# Track frame offsets:
#	150
#	13892
#	23847
#	42257
#	62682
#	81160
#	93135
#	116555
#	135777
#	145132
#	158977
#
# Disc length: 2386 seconds
#
# Revision: 0
# Processed by: cddbd v1.5PL3 Copyright (c) Steve Scherf et al.
# Submitted via: CDex 1.51
#
DISCID=8409500b
DTITLE=J.J.Milteau - J.J.Milteau
DYEAR=1998
DGENRE=Blues
TTITLE0=Big Walter
TTITLE1=Tin Biscuit Boy
TTITLE2=I Can´t Hold Out
TTITLE3=Lonely Crowd
TTITLE4=Miss. Boogie
TTITLE5=Rue Doisneau
TTITLE6=Hometown
TTITLE7=Routes
TTITLE8=Lonesome Train
TTITLE9=Blues Harp Saga
TTITLE10=Fun Home
EXTD=YEAR: 1998
EXTT0=
EXTT1=
EXTT2=
EXTT3=
EXTT4=
EXTT5=
EXTT6=
EXTT7=
EXTT8=
EXTT9=
EXTT10=
PLAYORDER=
